<svg width="33" height="31" viewBox="0 0 33 31" fill="none" xmlns="http://www.w3.org/2000/svg" aria-hidden="true">
  <path d="M6.91022 12.7118C7.63661 11.0836 8.77482 9.67207 10.213 8.61585C11.6512 7.55964 13.34 6.89507 15.1133 6.68744C14.9838 5.69776 13.3289 3.6529 13.1022 3.59487C11.3501 4.01436 9.69923 4.77819 8.24615 5.84173C6.79307 6.90527 5.56688 8.2472 4.6392 9.78913C4.58356 9.98806 6.01095 12.2866 6.91022 12.7118Z" fill="currentColor"/>
  <path d="M16.2268 21.3297C15.0705 21.3279 13.9623 20.8677 13.1459 20.0503C12.3296 19.2329 11.8719 18.1252 11.8737 16.971C11.8754 15.8168 12.3365 14.7105 13.1553 13.8956C13.9742 13.0806 15.0838 12.6238 16.2401 12.6256C17.3964 12.6273 18.5046 13.0875 19.321 13.905C20.1374 14.7224 20.595 15.83 20.5932 16.9843C20.5915 18.1385 20.1305 19.2448 19.3116 20.0597C18.4927 20.8746 17.3831 21.3315 16.2268 21.3297ZM16.2268 7.99874C11.2613 8.0004 7.23738 12.0205 7.23821 16.9772C7.23987 21.934 11.2654 25.9516 16.231 25.9516C21.1965 25.9516 25.2221 21.9331 25.2237 16.9764C25.2247 15.7969 24.9926 14.6287 24.5408 13.5389C24.089 12.449 23.4263 11.4588 22.5906 10.6249C21.7549 9.79098 20.7627 9.1298 19.6707 8.67917C18.5787 8.22854 17.4084 7.99732 16.2268 7.99874ZM16.187 6.06495C16.4444 4.51825 18.1333 2.95083 18.1333 2.95083C18.1333 1.12397 16.187 0 16.187 0C16.187 0 14.2506 1.12397 14.2506 2.95083C14.2506 2.95083 15.9287 4.5224 16.187 6.06495Z" fill="currentColor"/>
  <path d="M9.36309 24.6386C8.03146 23.4159 7.04136 21.8685 6.49004 20.1483C5.93873 18.4281 5.84516 16.5943 6.21854 14.8271C5.24038 14.6431 2.78086 15.6195 2.67707 15.8284C2.37004 19.4886 3.52516 23.1215 5.89054 25.935C6.14879 26.0212 8.71376 25.3771 9.36309 24.6461M9.80401 25.9093C8.72953 26.9993 6.46598 27.2454 6.46598 27.2454C5.45627 28.7225 6.39125 30.8221 6.39125 30.8221C6.39125 30.8221 8.59501 31.1039 9.61884 29.6169C9.61884 29.6169 9.14056 27.3151 9.79903 25.9093M21.4913 29.6608C21.6465 29.5323 21.84 26.8186 21.3534 25.9333C19.8001 26.8494 18.0289 27.3326 16.2247 27.3326C14.4206 27.3326 12.6494 26.8494 11.096 25.9333C10.6186 26.826 10.8121 29.5323 10.9673 29.6608L10.9582 29.6815C12.6248 30.3815 14.4146 30.742 16.2227 30.742C18.0307 30.742 19.8206 30.3815 21.4871 29.6815L21.4913 29.6608ZM22.6521 25.8695C23.7233 26.9636 25.9835 27.2048 25.9835 27.2048C27.0048 28.6827 26.0715 30.7848 26.0715 30.7848C26.0715 30.7848 23.8644 31.0691 22.8315 29.5829C22.8315 29.5829 23.3164 27.2745 22.6521 25.8695ZM29.7757 15.8334C29.6944 15.6361 27.2108 14.6431 26.2326 14.8271C26.6139 16.5938 26.5246 18.4295 25.9736 20.151C25.4225 21.8726 24.4291 23.4199 23.0922 24.6386C23.8005 25.3564 26.3447 26.0253 26.5614 25.9267C28.6752 23.4237 29.8325 20.2542 29.828 16.9805C29.828 16.5934 29.8139 16.1939 29.7849 15.8201L29.7757 15.8334ZM25.5351 12.696C26.4211 12.275 27.802 10.1024 27.8236 9.80322C26.8972 8.25909 25.6718 6.91475 24.219 5.84878C22.7662 4.78281 21.1151 4.01658 19.3622 3.59487C19.1364 3.62969 17.4723 5.68698 17.3378 6.68661C19.1095 6.89099 20.7972 7.55268 22.2346 8.60646C23.672 9.66024 24.8096 11.0697 25.5351 12.696ZM5.73693 13.5357C4.36435 12.8535 3.43103 10.7813 3.43103 10.7813C1.71219 10.2807 0 11.8224 0 11.8224C0 11.8224 0.411857 13.999 2.14647 14.5146C2.14647 14.5146 4.19662 13.3533 5.73693 13.5357ZM26.6478 13.5357C28.0212 12.8535 28.9545 10.7813 28.9545 10.7813C30.6775 10.2807 32.3855 11.8224 32.3855 11.8224C32.3855 11.8224 31.9737 13.999 30.2366 14.5146C30.2366 14.5146 28.1889 13.3533 26.6478 13.5357Z" fill="currentColor"/>
</svg>
